<?xml version="1.0" encoding="utf-8"?>
<!-- Generator: Adobe Illustrator 19.0.0, SVG Export Plug-In . SVG Version: 6.00 Build 0)  -->
<svg version="1.1" id="图层_1" xmlns="http://www.w3.org/2000/svg" xmlns:xlink="http://www.w3.org/1999/xlink" x="0px" y="0px"
	 viewBox="0 0 100 100" style="enable-background:new 0 0 100 100;" xml:space="preserve">
<style type="text/css">
	.st0{fill:#FFFFFF;}
</style>
<path id="XMLID_2_" class="st0" d="M81.7,20.8H17.1c-3.3,0-6-2.7-6-6v-2.5c0-3.3,2.7-6,6-6h64.7c3.3,0,6,2.7,6,6v2.5
	C87.7,18.1,85,20.8,81.7,20.8z"/>
<path id="XMLID_3_" class="st0" d="M81.7,55.3H17.1c-3.3,0-6-2.7-6-6v-2.5c0-3.3,2.7-6,6-6h64.7c3.3,0,6,2.7,6,6v2.5
	C87.7,52.6,85,55.3,81.7,55.3z"/>
<path id="XMLID_4_" class="st0" d="M81.7,89.7H17.1c-3.3,0-6-2.7-6-6v-2.5c0-3.3,2.7-6,6-6h64.7c3.3,0,6,2.7,6,6v2.5
	C87.7,87,85,89.7,81.7,89.7z"/>
</svg>
